# xmcd CD database file
#
# Track frame offsets:
#	187
#	25287
#	45937
#	71062
#
# Disc length: 1218 seconds
#
# Revision: 0
# Processed by: cddbd v1.5.1PL0 Copyright (c) Steve Scherf et al.
# Submitted via: CDex 1.51
#
DISCID=2c04c004
DTITLE=Misty Eyes - Sunshine
DYEAR=1995
DGENRE=JPop
TTITLE0=Sunshine
TTITLE1=Jealous Night
TTITLE2=Sunshine(カラオケ)
TTITLE3=Jealous Night(カラオケ)
EXTD=YEAR: 1995
EXTT0=
EXTT1=
EXTT2=
EXTT3=
PLAYORDER=
